<?xml version="1.0" encoding="utf-8"?>
<!-- Generator: Adobe Illustrator 24.3.0, SVG Export Plug-In . SVG Version: 6.00 Build 0)  -->
<svg version="1.1" id="Layer_1" xmlns="http://www.w3.org/2000/svg" xmlns:xlink="http://www.w3.org/1999/xlink" x="0px" y="0px"
	 viewBox="0 0 216 216" style="enable-background:new 0 0 216 216;" xml:space="preserve">
<style type="text/css">
	.st0{fill:#201B54;}
	.st1{fill:#E4F5FD;}
</style>
<rect x="-1.51" y="-0.15" class="st0" width="218.16" height="216.11"/>
<g>
	<path class="st1" d="M99.9,111.17c3.18-4.71,7.82-9.88,13.89-15.53c4.2-3.91,7.31-7.2,9.34-9.88c2.03-2.68,3.04-5.54,3.04-8.58
		c0-4.2-1.78-7.56-5.32-10.1c-3.54-2.53-8.14-3.8-13.78-3.8c-5.8,0-11.05,1.37-15.74,4.12c-4.71,2.75-8.51,6.59-11.4,11.51
		L47.57,61.54C53.5,51.42,61.9,43.53,72.75,37.88c10.86-5.65,23.96-8.47,39.3-8.47c17.23,0,31.09,3.58,41.58,10.75
		c10.5,7.16,15.74,17.19,15.74,30.08c0,5.94-1.01,11.18-3.04,15.74c-2.03,4.56-4.44,8.4-7.27,11.51
		c-2.83,3.12-6.48,6.62-10.97,10.53c-4.92,4.2-8.54,7.79-10.86,10.75c-2.32,2.97-3.47,6.41-3.47,10.31H95.12
		C95.12,121.84,96.72,115.87,99.9,111.17z M96.86,179.78c-4.63-4.41-6.95-9.8-6.95-16.18c0-6.51,2.28-11.86,6.84-16.07
		c4.56-4.2,10.46-6.3,17.7-6.3c7.24,0,13.17,2.1,17.8,6.3c4.63,4.2,6.95,9.55,6.95,16.07c0,6.37-2.31,11.76-6.95,16.18
		c-4.63,4.42-10.56,6.62-17.8,6.62C107.35,186.4,101.49,184.2,96.86,179.78z"/>
</g>
<rect x="-60.55" y="15.41" style="fill:none;" width="20.18" height="22.67"/>
<text transform="matrix(1 0 0 1 -60.5497 30.9885)" class="st1" style="font-family:'Montserrat-ExtraBold'; font-size:21px;">?</text>
</svg>
